<svg width="500" height="500" viewBox="0 0 500 500" fill="none" xmlns="http://www.w3.org/2000/svg">
<rect width="500" height="500" fill="#1D2C39"/>
<path fill-rule="evenodd" clip-rule="evenodd" d="M370.963 291.489C360.08 258.868 341.58 228.111 315.491 202.022C265.896 152.427 199.43 130.257 135.364 135.705C129.916 199.77 152.086 266.237 201.682 315.832C226.989 341.14 256.69 359.306 288.223 370.306C264.26 339.302 255.675 300.391 262.574 264.109C299.717 257.046 339.615 266.21 370.963 291.489Z" fill="#F0FEFF"/>
<path d="M71.1576 189.996C68.9765 201.251 67.8376 212.879 67.845 224.774C67.9073 325.119 149.523 406.516 250.138 406.579C350.754 406.641 432.269 325.345 432.206 225C432.199 213.105 431.046 201.476 428.851 190.218C412.632 273.916 338.784 337.074 250.095 337.019C161.407 336.964 87.4803 273.714 71.1576 189.996Z" fill="#EB7272"/>
<path d="M190.818 70.3353C202.074 68.1542 213.701 67.0153 225.596 67.0226C325.942 67.0849 407.338 148.7 407.401 249.316C407.463 349.932 326.168 431.446 225.822 431.384C213.927 431.377 202.299 430.223 191.04 428.028C274.738 411.809 337.896 337.962 337.841 249.273C337.786 160.584 274.536 86.658 190.818 70.3353Z" fill="#EB7272"/>
<path d="M340.874 68.8923C397.383 145.113 391.084 253.244 321.977 322.351C253.938 390.39 148.073 397.548 72.0752 343.824C79.5783 355.516 88.4421 366.587 98.6666 376.811C175.586 453.73 300.39 453.637 377.424 376.602C454.459 299.567 454.553 174.763 377.633 97.8442C366.316 86.5263 353.961 76.8757 340.874 68.8923Z" fill="#EB7272"/>
<path d="M316.918 317.111C344.818 289.211 334.673 220.224 334.673 220.224L383.37 268.921L269.743 382.547L221.046 333.85C221.046 333.85 289.019 345.01 316.918 317.111Z" fill="#EB7272"/>
</svg>
