<svg width="1024" height="1024" viewBox="0 0 1024 1024" fill="none" xmlns="http://www.w3.org/2000/svg">
<path fill-rule="evenodd" clip-rule="evenodd" d="M847.632 630.668C817.781 540.912 767.037 456.283 695.476 384.499C559.438 248.036 377.124 187.035 201.395 202.024C186.452 378.302 247.263 561.186 383.301 697.649C452.719 767.284 534.186 817.269 620.679 847.535C554.949 762.229 531.402 655.163 550.325 555.331C652.206 535.898 761.645 561.114 847.632 630.668Z" fill="#F0FEFF"/>
<path d="M25.2794 351.408C19.2967 382.378 16.1727 414.371 16.193 447.1C16.3638 723.204 240.232 947.169 516.216 947.341C792.2 947.513 1015.79 723.826 1015.62 447.722C1015.6 414.993 1012.44 382.997 1006.42 352.019C961.928 582.316 759.367 756.097 516.097 755.946C272.828 755.794 70.0518 581.761 25.2794 351.408Z" fill="#EB7272"/>
<path d="M353.503 22.1586C384.377 16.1572 416.27 13.0235 448.897 13.0438C724.14 13.2151 947.408 237.783 947.579 514.629C947.751 791.476 724.76 1015.77 449.517 1015.59C416.89 1015.57 384.993 1012.4 354.112 1006.36C583.692 961.734 756.931 758.54 756.78 514.511C756.629 270.481 583.138 67.071 353.503 22.1586Z" fill="#EB7272"/>
<path d="M765.1 18.1882C920.101 227.913 902.823 525.438 713.266 715.587C526.638 902.798 236.254 922.492 27.7962 774.67C48.377 806.841 72.6898 837.302 100.735 865.435C311.721 1077.08 654.053 1076.82 865.355 864.86C1076.66 652.897 1076.91 309.495 865.929 97.85C834.884 66.7086 800.996 40.1548 765.1 18.1882Z" fill="#EB7272"/>
</svg>
